<svg width="120" height="56" viewBox="0 0 68 40" fill="none" xmlns="http://www.w3.org/2000/svg">
<path d="M19.1857 0.0125771C14.5551 0.24218 10.3178 1.94367 6.826 4.97686C6.47147 5.28381 5.67016 6.06688 5.28892 6.47775C3.27592 8.64812 1.72185 11.3526 0.862251 14.1876C-0.339725 18.1465 -0.283876 22.4051 1.02251 26.3156C3.34391 33.2593 9.31008 38.4073 16.5317 39.6955C17.7919 39.9202 18.7219 40 20.0963 40C21.3274 40 22.085 39.9444 23.168 39.7801C30.1686 38.7166 36.1591 33.9723 38.7791 27.4153C39.0997 26.608 39.5586 25.2111 39.5125 25.17C39.4955 25.1531 33.8037 24.1742 33.794 24.1863C33.7891 24.1911 33.7308 24.3627 33.6604 24.5682C32.2739 28.66 29.0492 31.9348 24.9503 33.4091C22.5051 34.2889 19.7855 34.4822 17.2116 33.9554C14.8829 33.4792 12.7533 32.4521 10.8933 30.9101C10.4902 30.5741 9.67674 29.779 9.32465 29.3754C7.79729 27.6279 6.73372 25.5857 6.19466 23.3718C5.91541 22.2286 5.79885 21.2377 5.79885 20.0123C5.79642 19.0794 5.84499 18.4945 5.99068 17.6196C6.7313 13.1895 9.59904 9.32485 13.6493 7.28983C15.2568 6.48259 16.8425 6.02338 18.7243 5.82036C19.2294 5.76719 20.8345 5.75994 21.3468 5.80828C22.5901 5.92912 23.6877 6.16356 24.7828 6.54059C28.5296 7.82879 31.6013 10.6469 33.2063 14.2698C33.2938 14.4704 33.3666 14.6396 33.3666 14.6468C33.3666 14.6638 31.5697 14.6613 30.8607 14.642L30.2633 14.6275L30.0618 14.2867C28.7384 12.0245 26.74 10.3061 24.3239 9.35627C23.423 9.00099 22.4347 8.75446 21.3954 8.62878C20.9608 8.57561 19.7054 8.55386 19.2464 8.59011C17.6486 8.72063 16.199 9.12908 14.827 9.8324C13.29 10.6251 11.9374 11.7659 10.8957 13.1484C9.48006 15.0287 8.70788 17.2136 8.60832 19.6305L8.59132 20.0244H24.404H40.2167L40.2021 19.5942C40.1681 18.6178 40.1122 17.9411 39.9957 17.1241C39.2866 12.1719 36.6957 7.63786 32.7595 4.46207C29.5179 1.84458 25.6035 0.317104 21.4197 0.0367432C20.8855 0.000492096 19.6859 -0.0115929 19.1857 0.0125771Z" fill="#01B763"/>
<path d="M50.9219 31.4097V39.7963H53.423H55.924L55.9289 33.8193L55.9362 27.8448L57.0532 27.8472C58.2017 27.8496 58.5077 27.8641 59.0322 27.956C60.5523 28.217 61.4896 28.9783 61.8004 30.2085C61.8926 30.571 61.9218 30.8393 61.9218 31.2937C61.9218 32.8115 61.3366 33.8701 60.1904 34.4284C59.445 34.7885 58.5587 34.9359 57.1212 34.9384H56.7254V37.3915V39.8446L56.7933 39.8616C56.8298 39.8688 57.3786 39.8785 58.0123 39.8785C58.9885 39.8809 59.2192 39.8737 59.5178 39.8374C61.6013 39.5788 63.1869 38.8441 64.5783 37.5003C65.9866 36.1371 66.7564 34.5444 67.0089 32.4611C67.0623 32.026 67.0818 31.0278 67.0478 30.5638C66.9215 28.8865 66.4286 27.5282 65.518 26.3246C64.7288 25.2877 63.76 24.5119 62.5993 23.9874C61.5454 23.5113 60.4673 23.2382 59.0079 23.0787C58.6728 23.0424 58.2114 23.0376 54.7779 23.0304L50.9219 23.0207V31.4097Z" fill="#24262B"/>
<path d="M45.2992 19.4355C44.7456 19.5129 44.3886 19.6216 43.9783 19.8319C43.614 20.0204 43.3445 20.2234 43.0385 20.5376C42.5602 21.0331 42.2518 21.6107 42.1012 22.3044C42.0235 22.6572 42.0235 23.3823 42.1012 23.7303C42.3319 24.7672 42.9463 25.6155 43.8471 26.1376C44.8476 26.7152 46.1127 26.7659 47.1787 26.2705C47.5526 26.0965 47.8634 25.8765 48.1913 25.5502C48.7158 25.0258 49.0266 24.4578 49.1868 23.7231C49.2524 23.4306 49.2524 22.6161 49.1893 22.3213C48.876 20.8591 47.7663 19.7666 46.307 19.4814C46.1103 19.4428 45.4546 19.4138 45.2992 19.4355Z" fill="#24262B"/>
<path d="M47.6753 27.1382C46.9905 27.6505 46.1358 27.9212 45.3855 27.8705C44.6716 27.8197 44.0524 27.5829 43.2438 27.0487L43.1758 27.0052V33.4245V39.8438H45.5312H47.8866V33.4148C47.8866 29.8789 47.8841 26.9859 47.8817 26.9883C47.8768 26.9883 47.7846 27.056 47.6753 27.1382Z" fill="#24262B"/>
</svg>
